<?xml version="1.0" encoding="utf-8" ?>
<svg xmlns="http://www.w3.org/2000/svg" xmlns:xlink="http://www.w3.org/1999/xlink" width="744" height="744">
	<path transform="scale(1.45313 1.45313)" d="M467.388 78.4534L467.607 78.7689L458.643 110.977C457.581 114.789 456.041 122.449 454.314 125.608C452.329 129.241 434.055 140.342 429.835 143.217L379.787 177.087C376.994 179 375.954 180.491 372.62 179.836C363.521 178.047 360.217 189.951 370.625 193.165C375.115 192.216 398.412 175.37 403.363 172.062L428.618 154.979C434.55 151.019 440.175 146.504 446.373 142.962C446.131 149.646 446.765 157.041 447.505 163.715C445.423 168.127 435.51 183.732 432.672 187.575L381.362 202.73C373.685 204.953 375.617 203.546 369.662 204.201C360.527 205.206 363.726 219.954 373.02 217.34C375.942 216.518 377.303 213.682 380.389 212.591C389.42 209.398 398.821 207.104 407.965 204.243L423.065 199.464C426.88 198.225 430.645 196.836 434.573 195.993C431.982 203.965 430.818 216.033 424.69 222.176L376.553 232.024C375.402 231.061 374.152 230.184 372.953 229.281C363.077 228.767 360.871 238.467 367.221 242.05C371.468 244.447 375.713 241.723 379.989 240.739C392.145 237.942 404.324 235.106 416.411 232.024C411.69 239.655 406.028 246.716 401.13 254.248C396.508 253.753 391.898 254.201 387.265 254.229L361.23 254.248C357.534 251.891 348.807 242.361 344.847 242.724C342.384 242.951 340.653 245.555 341.146 247.924C341.7 250.587 355.463 261.303 357.798 262.797L387.777 262.797C383.339 268.637 377.799 273.733 372.953 279.249L352.576 279.249C346.663 275.546 335.727 262.104 329.694 263.249C320.958 264.906 322.908 279.859 334.929 275.541L335.263 275.418C338.611 278.424 344.469 284.617 348.483 286.227C351.521 287.445 357.413 289.195 361.23 290.609C356.477 292.537 351.689 294.463 347.016 296.578C343.049 298.089 339.172 299.885 335.263 301.544L323.726 288.725C321.361 286.075 319.065 283.273 316.463 280.855C305.884 280.313 295.149 282.34 284.566 281.344C287.141 279.69 289.443 277.539 291.768 275.555L304.795 264.293L328.765 244.216C336.388 237.817 343.897 231.366 351.721 225.205C351.742 217.724 351.321 210.13 351.721 202.669C362.125 191.563 340.349 185.011 340.81 196.687C340.923 199.536 343.166 201.092 343.509 203.622C344.147 208.328 343.451 217.069 343.497 222.176C334.056 226.98 310.463 248.898 301.621 256.335L288.518 267.354C285.744 269.679 282.722 271.924 280.263 274.581C280.309 282.061 280.716 290.326 280.263 297.735C287.743 305.128 295.717 312.125 303.011 319.688C303.291 325.606 302.683 331.555 303.011 337.469C296.112 329.8 288 322.507 280.263 315.655L280.263 332.184C282.379 335.267 284.27 338.519 286.327 341.645L300.452 362.995C298.151 367.36 295.573 371.601 293.145 375.899C290.978 371.314 288.123 367.186 285.402 362.924L275.42 347.086C273.501 344.004 271.315 340.844 269.845 337.524C268.61 334.734 269.256 276.476 269.258 268.412C273.064 262.947 311.085 230.796 316.463 227.721L316.463 187.575C320.809 183.717 326.706 180.24 331.481 176.762L455.012 87.0831C459.093 84.1565 463.138 81.13 467.388 78.4534Z"/>
	<path transform="scale(1.45313 1.45313)" d="M44.3517 78.4534C46.5777 79.1979 57.1369 87.2223 60.0334 89.2577C87.4596 108.531 114.345 128.528 141.352 148.379L175.935 173.817C182.091 178.351 188.534 182.633 194.373 187.575C195.067 200.135 194.215 214.083 194.373 226.834C209.895 239.244 228.684 254.929 242.873 268.412C242.875 276.304 243.391 334.931 242.499 337.429C240.649 342.611 222.355 370.084 218.533 375.899C216.029 371.914 213.512 367.967 211.409 363.752C217.604 352.962 225.086 342.77 231.65 332.184L231.65 315.655C223.799 322.318 216.452 330.124 209.254 337.469C209.369 331.551 209.258 325.609 209.254 319.688C214.734 313.306 225.281 303.694 231.65 297.735C231.289 290.351 231.639 282.819 231.65 275.418C223.855 267.593 214.894 260.579 206.518 253.391C193.662 242.358 181.024 231.192 167.569 220.874C167.658 214.444 167.695 207.939 167.569 201.51C179.702 186.68 147.765 185.328 159.529 201.51C159.431 232.773 154.621 221.849 178.458 241.671L208.953 267.435C211.867 269.907 221.966 277.839 223.644 280.758L223.485 281.253C221.992 281.821 200.679 280.318 195.773 280.808L195.32 280.855C191.457 284.032 179.373 297.09 177.021 300.658C171.832 299.043 166.789 297.191 161.687 295.312C159.311 294.321 152.654 293.135 151.968 290.177C152.42 288.754 160.667 288.039 162.301 287.394C165.609 286.088 173.894 277.513 177.021 274.581C189.223 280.465 190.107 262.106 180.753 263.207C174.466 263.946 168.424 276.478 161.937 278.843C158.517 280.09 146.239 280.549 141.794 280.855C135.938 276.361 127.053 268.607 121.887 263.424C134.134 263.422 146.48 263.778 158.715 263.424C161.268 259.301 166.92 255.027 170.223 250.707C170.278 249.212 170.443 247.748 169.533 246.453C164.489 239.27 156.022 251.918 152.148 254.627C139.138 255.923 124.536 252.541 112.325 254.248C106.986 246.406 100.213 239.316 94.1438 232.024C107.799 234.602 120.946 237.551 134.531 240.352C136.809 240.821 139.011 242.282 141.375 242.277C155.111 242.25 145.998 218.97 135.346 232.024C131.159 231.266 89.0571 221.384 87.4478 220.406C83.6603 218.103 79.2272 200.996 77.7998 195.993C81.2641 196.914 84.6765 198.134 88.1041 199.192L112.232 206.787C119.252 209.014 126.708 210.697 133.499 213.552L133.967 213.751C136.144 214.671 143.662 222.982 147.675 213.585C150.612 206.705 143.116 202.574 137.27 205.17L136.952 205.314C132.143 204.074 82.1468 188.535 81.2337 187.773C79.5415 186.362 66.664 167.188 64.4985 163.715C64.4097 158.733 64.9116 147.575 66.1892 142.962C87.9226 157.555 111.753 173.189 132.872 188.556C136.627 191.288 135.167 192.77 140.877 194.385C152.591 192.04 149.738 178.613 138.261 181.073C116.494 168.791 92.6889 150.673 71.9522 136.396C54.1406 124.133 58.6817 128.981 52.7405 108.295C50.1369 99.2301 46.0384 87.5805 44.3517 78.4534Z"/>
	<path transform="scale(1.45313 1.45313)" d="M246.906 189.206L247.123 189.461C247.336 200.861 255.104 204.332 264.542 208.708C264.752 211.959 264.388 215.227 264.614 218.476C265.455 230.581 280.58 234.075 288.191 240.989C282.674 247.372 268.556 257.283 261.471 263.424C261.034 271.839 261.459 280.452 261.461 288.889L261.471 340.301C270.005 353.848 280.915 370.607 288.191 384.5C279.958 401.098 269.682 413.489 260.695 428.545C261.106 424.253 260.708 419.621 260.705 415.29L260.695 387.048L260.695 380.81C257.637 380.721 254.558 380.798 251.498 380.81L251.496 411.989C251.491 417.504 251.354 423.032 251.498 428.545C241.992 417.721 229.731 397.045 223.759 384.5C225.296 382.157 226.624 379.638 228.101 377.248L250.755 340.301L250.757 288.664C250.756 280.286 250.431 271.788 250.755 263.424C243.77 257.582 231.888 248.17 225.943 241.837C231.121 236.91 237.34 232.327 242.873 227.721C242.306 224.851 242.875 217.967 242.876 214.597C242.878 202.891 241.087 200.198 246.906 189.206Z"/>
	<path transform="scale(1.45313 1.45313)" d="M255.165 173.355C255.599 173.749 255.57 174.043 255.676 174.593C258.647 190.011 278.881 183.543 278.237 200.698C282.681 204.526 287.062 208.052 285.469 214.653C285.11 216.139 284.163 219.118 282.836 219.915C276.971 206.346 263.196 211.63 259.251 199.729C249.322 193.192 250.347 183.227 255.165 173.355Z"/>
</svg>
